         1      -82.636150       32.826055
         6      -81.385315       32.333366
        29      -80.960527       32.065205
        46      -81.663666       31.711497
        67      -81.759385       32.417826
        90      -84.143504       33.938338
       103      -84.519633       33.883746
       129      -82.540356       30.968815
       143      -83.519445       30.868891
       149      -84.004767       33.942817
       160      -84.210162       33.585173
       173      -84.477401       31.051011
       183      -84.516468       31.582101
       188      -83.638933       31.719955
       201      -84.274229       32.201728
       225      -84.935105       32.467701
       231      -84.384193       32.643941
       283      -84.056649       33.595760
       294      -83.834640       33.014683
       329      -82.594885       31.659032
       360      -82.848254       32.578657
       379      -84.499980       34.294492
       395      -82.015332       33.343588
       408      -82.141695       32.907669
       428      -82.779904       33.632572
       446      -83.305624       33.405282
       460      -83.711025       33.002971
       487      -84.366258       34.122471
       508      -84.298665       32.999672
       540      -84.652839       33.075393
       580      -84.970041       33.625756
       605      -85.105897       33.895331
       644      -84.444682       33.949847
       675      -84.621352       33.844625
       702      -84.449640       33.494371
       710      -84.628451       33.627081
       727      -84.378029       33.724036
       734      -84.701615       34.003345
       762      -84.471523       33.774420
       782      -84.423714       33.752416
       803      -84.285573       33.866275
       813      -84.177832       33.834859
       824      -84.319780       33.854084
       828      -84.068030       33.675859
       834      -84.311394       33.557599
       858      -83.834160       34.001221
       876      -83.464994       33.940312
       881      -83.015936       33.967605
       899      -84.107037       34.079126
       911      -83.921406       34.351163
       935      -83.707068       34.628114
       962      -84.249581       34.770307
       987      -85.237776       34.405051
      1002      -85.245811       34.832357
      1010      -84.815065       34.547769
      1034      -84.101664       33.778714
      1039      -84.332740       34.064689
END
